<svg width="219" height="199" viewBox="0 0 219 199" fill="none" xmlns="http://www.w3.org/2000/svg">
<path opacity="0.2" fill-rule="evenodd" clip-rule="evenodd" d="M210.429 8.612C214.644 9.19436 218.091 10.2026 218.091 10.8559C218.091 11.5076 215.207 14.0403 211.682 16.4827C208.157 18.925 201.958 24.4679 197.906 28.8009C193.853 33.1339 190.293 36.678 189.994 36.678C189.694 36.678 189.828 33.3178 190.291 29.2106C190.951 23.358 190.561 21.4206 188.481 20.2575C185.082 18.3556 185.055 15.7067 188.433 15.7067C190.832 15.7067 190.832 15.3857 188.433 11.6738C187 9.4557 184.737 5.95187 183.406 3.88701L180.983 0.134766L191.875 3.84508C197.865 5.88574 206.213 8.03126 210.429 8.612ZM180.685 20.1252C180.009 23.6291 174.535 24.947 174.535 21.6061C174.535 19.3896 176.636 17.7603 179.896 17.4474C180.627 17.378 180.982 18.5814 180.685 20.1252ZM169.293 24.1759C168.276 27.228 163.243 27.662 163.243 24.697C163.243 23.2016 164.622 22.1595 166.603 22.1595C168.575 22.1595 169.688 22.9935 169.293 24.1759ZM158.404 27.633C158.404 30.3689 154.042 32.3015 152.714 30.1543C152.19 29.3058 152.209 27.8862 152.758 26.999C154.248 24.5873 158.404 25.0535 158.404 27.633ZM147.111 32.6451C147.111 33.9889 145.677 35.0649 143.885 35.0649C140.672 35.0649 139.689 33.3452 141.735 31.3013C143.7 29.3365 147.111 30.1898 147.111 32.6451ZM136.576 36.5974C137.097 37.4394 136.095 38.8929 134.35 39.8286C130.964 41.6402 128.332 39.656 130.173 36.678C131.436 34.6341 135.332 34.5841 136.576 36.5974ZM125.421 44.6036C123.851 47.1427 119.687 46.7571 119.687 44.0712C119.687 41.3595 123.136 39.7737 125.113 41.5789C125.877 42.2774 126.016 43.6389 125.421 44.6036ZM69.679 48.7769C69.679 50.1206 68.2449 51.1966 66.4527 51.1966C64.6605 51.1966 63.2263 50.1206 63.2263 48.7769C63.2263 47.4331 64.6605 46.3571 66.4527 46.3571C68.2449 46.3571 69.679 47.4331 69.679 48.7769ZM81.7779 48.7769C81.7779 49.6641 80.1437 50.6223 78.1482 50.9062C75.651 51.2595 74.5186 50.5965 74.5186 48.7769C74.5186 46.9572 75.651 46.2942 78.1482 46.6475C80.1437 46.9314 81.7779 47.8896 81.7779 48.7769ZM115.279 51.4112C114.274 52.4162 112.133 52.7275 110.52 52.1016C107.726 51.0192 107.735 50.8578 110.728 48.6559C114.417 45.9409 118.36 48.33 115.279 51.4112ZM57.6673 52.6694C56.0977 55.2086 51.9341 54.823 51.9341 52.1371C51.9341 49.4253 55.3831 47.8396 57.3592 49.6447C58.1239 50.3432 58.2626 51.7048 57.6673 52.6694ZM93.0701 49.5834C93.6186 50.4707 93.6379 51.8903 93.1136 52.7388C91.786 54.8859 87.424 52.9534 87.424 50.2174C87.424 47.6379 91.5795 47.1717 93.0701 49.5834ZM47.0946 55.0569C47.0946 57.3235 42.4551 60.0013 41.0178 58.564C40.5919 58.1365 40.6725 56.6685 41.1984 55.2989C42.389 52.1968 47.0946 52.0048 47.0946 55.0569ZM105.301 54.423C107.726 54.423 106.98 59.2883 104.404 60.2772C101.505 61.3887 96.4787 56.7395 97.9693 54.3246C98.5597 53.3712 100.118 53.0018 101.431 53.5067C102.744 54.01 104.487 54.423 105.301 54.423ZM36.5589 60.795C37.08 61.6371 36.0782 63.0906 34.3328 64.0262C30.9467 65.8378 28.3156 63.8536 30.1562 60.8757C31.4194 58.8318 35.3152 58.7818 36.5589 60.795ZM111.654 63.3341C112.777 64.686 113.259 66.2282 112.728 66.7605C111.076 68.4124 106.782 65.9459 106.782 63.3454C106.782 60.1868 109.037 60.1804 111.654 63.3341ZM97.103 68.135C95.6883 69.8401 94.4429 70.153 93.3685 69.0787C92.2925 68.0027 92.4619 66.6137 93.8767 64.9086C95.2914 63.2035 96.5368 62.8905 97.6112 63.9649C98.6872 65.0409 98.5178 66.4298 97.103 68.135ZM26.817 67.1461C28.0575 69.1513 23.4164 72.6793 21.2757 71.3565C20.0174 70.5789 20.0529 69.6175 21.4032 67.9914C23.5664 65.3845 25.5377 65.0764 26.817 67.1461ZM117.366 76.496C116.284 79.2917 116.124 79.282 113.927 76.296C112.122 73.8456 112.057 72.8954 113.625 71.9275C116.434 70.1901 118.726 72.989 117.366 76.496ZM91.1311 73.1858C91.6908 73.7472 91.3827 75.6394 90.4438 77.393C88.4322 81.1533 84.7945 78.7561 86.3528 74.6957C87.361 72.0679 89.3759 71.4323 91.1311 73.1858ZM18.0574 77.814C18.0574 80.5854 15.3715 82.3712 13.2131 81.0371C12.1403 80.3741 12.1677 78.9707 13.2937 76.8638C15.0989 73.4939 18.0574 74.0844 18.0574 77.814ZM121.301 86.7816C121.301 88.5045 120.296 89.9128 119.07 89.9128C116.287 89.9128 114.519 83.857 117.035 82.9487C119.807 81.947 121.301 83.2891 121.301 86.7816ZM85.8108 85.9299C85.8108 88.3706 81.5568 91.0372 80.0566 89.537C79.6307 89.1095 79.7404 87.5689 80.2986 86.1106C81.5827 82.7665 85.8108 82.6277 85.8108 85.9299ZM12.2984 86.5042C13.3518 88.2093 8.72844 92.4132 7.33304 91.0195C5.98927 89.6741 7.93314 85.0733 9.84637 85.0733C10.7078 85.0733 11.8128 85.717 12.2984 86.5042ZM82.2812 97.5577C81.9843 99.0999 80.5357 100.594 79.0629 100.878C77.0658 101.262 76.606 100.548 77.2529 98.0723C78.3095 94.0296 83.0539 93.5441 82.2812 97.5577ZM121.301 95.4266C121.301 98.0029 118.97 101.205 117.095 101.205C114.777 101.205 114.02 97.7303 115.924 95.8283C117.098 94.6523 121.301 94.3394 121.301 95.4266ZM8.37838 97.0398C8.37838 99.6161 6.04733 102.818 4.17282 102.818C1.85469 102.818 1.09812 99.3435 3.00166 97.4415C4.17606 96.2655 8.37838 95.9525 8.37838 97.0398ZM80.9713 110.979C80.9713 112.702 79.8824 114.11 78.5515 114.11C76.1592 114.11 75.1687 109.158 77.1626 107.164C78.8451 105.482 80.9713 107.613 80.9713 110.979ZM116.942 107.062C117.502 107.624 117.194 109.516 116.255 111.27C114.232 115.049 110.978 112.825 112.548 108.734C113.624 105.93 115.206 105.328 116.942 107.062ZM5.15203 110.884C5.15203 112.676 4.07604 114.11 2.73226 114.11C1.38849 114.11 0.3125 112.676 0.3125 110.884C0.3125 109.092 1.38849 107.658 2.73226 107.658C4.07604 107.658 5.15203 109.092 5.15203 110.884ZM111.622 119.661C111.622 122.473 108.976 124.34 106.853 123.026C104.706 121.699 106.638 117.337 109.374 117.337C110.61 117.337 111.622 118.382 111.622 119.661ZM5.95862 122.983C5.95862 127.098 2.51771 127.843 1.4998 123.949C1.04004 122.189 1.0836 120.329 1.59659 119.816C3.3243 118.089 5.95862 120 5.95862 122.983ZM83.1474 121.318C84.1831 124.014 81.7795 126.092 79.3581 124.596C76.9464 123.106 77.4126 118.95 79.9921 118.95C81.2278 118.95 82.649 120.016 83.1474 121.318ZM103.556 127.65C103.556 129.916 98.9162 132.594 97.4789 131.157C97.053 130.729 97.1337 129.261 97.6596 127.892C98.8501 124.79 103.556 124.598 103.556 127.65ZM89.7115 127.995C91.1149 128.534 92.2635 130.063 92.2635 131.394C92.2635 132.938 91.3391 133.459 89.7115 132.835C88.308 132.296 86.5158 131.855 85.7301 131.855C84.9429 131.855 84.7171 130.766 85.2268 129.436C86.2867 126.675 86.2786 126.677 89.7115 127.995ZM9.1769 136.708C7.68956 139.116 5.62307 138.636 4.4632 135.614C3.1291 132.138 7.06364 129.565 8.8462 132.747C9.57213 134.046 9.72054 135.827 9.1769 136.708ZM14.2891 144.062C15.8474 148.123 12.2097 150.52 10.198 146.76C8.5155 143.615 9.20271 141.534 11.9241 141.534C12.692 141.534 13.7551 142.672 14.2891 144.062ZM21.8726 157.723C19.7238 159.871 15.6441 155.425 17.3025 152.743C18.109 151.438 19.1834 151.649 21.0015 153.467C22.7921 155.256 23.0534 156.542 21.8726 157.723ZM29.2303 163.169C30.5224 164.725 30.5837 165.776 29.4287 166.49C27.1751 167.882 24.5101 166.108 24.5101 163.217C24.5101 160.255 26.7928 160.231 29.2303 163.169ZM38.7432 172.722C39.0448 174.277 38.235 175.411 36.8219 175.411C33.8262 175.411 32.0162 172.782 33.4358 170.486C34.8941 168.126 38.1156 169.481 38.7432 172.722ZM46.9752 179.3C48.3254 180.927 48.3609 181.888 47.1027 182.666C44.962 183.988 40.3209 180.46 41.5614 178.455C42.8406 176.385 44.8119 176.694 46.9752 179.3ZM56.6543 187.366C58.0045 188.992 58.04 189.954 56.7817 190.731C54.641 192.054 49.9999 188.526 51.2404 186.521C52.5197 184.451 54.491 184.759 56.6543 187.366ZM65.4283 198.052C63.2796 200.201 59.1998 195.755 60.8582 193.072C61.6648 191.767 62.7392 191.978 64.5572 193.796C66.3478 195.586 66.6092 196.871 65.4283 198.052Z" fill="url(#paint0_linear_0_2353)"/>
<defs>
<linearGradient id="paint0_linear_0_2353" x1="109.143" y1="-17.7547" x2="109.143" y2="177.885" gradientUnits="userSpaceOnUse">
<stop stop-color="#FFBA3B"/>
<stop offset="0.5315" stop-color="#FFA53B"/>
<stop offset="1" stop-color="#FF983B"/>
</linearGradient>
</defs>
</svg>
