<svg width="152" height="186" viewBox="0 0 152 186" fill="none" xmlns="http://www.w3.org/2000/svg">
<path opacity="0.3" fill-rule="evenodd" clip-rule="evenodd" d="M148.449 7.43437C148.339 12.3549 148.161 13.1 147.089 13.1081C145.645 13.1195 145.653 13.1613 145.831 6.41906C145.935 2.51633 146.214 1.26623 147.02 1.1086C147.6 0.995518 148.187 1.09804 148.325 1.33684C148.463 1.57525 148.519 4.31902 148.449 7.43437ZM149.338 26.0623C149.854 31.3923 149.774 32.0501 148.609 32.0592C147.469 32.068 147.219 31.294 146.667 26.0179C146.18 21.3663 146.275 19.9194 147.079 19.7624C147.653 19.6499 148.266 19.6743 148.44 19.8166C148.614 19.9589 149.018 22.7694 149.338 26.0623ZM151.591 44.7205C151.936 49.8532 151.843 50.4102 150.652 50.3464C149.504 50.2849 149.275 49.5236 148.906 44.5451C148.593 40.3175 148.742 38.763 149.476 38.618C150.022 38.5097 150.635 38.5566 150.839 38.7227C151.041 38.8884 151.38 41.5876 151.591 44.7205ZM147.917 61.5755C145.905 64.9612 143.602 66.7053 142.419 65.739C141.607 65.0759 141.785 64.6174 143.812 62.1358C145.089 60.5719 146.542 58.524 147.04 57.5854C147.767 56.2147 148.151 55.9867 148.993 56.4296C150.2 57.0653 149.985 58.0943 147.917 61.5755ZM94.8285 15.6521C96.2864 17.6411 96.2959 18.0919 94.889 18.5269C94.3265 18.7008 93.2903 17.8907 91.3262 15.7408C86.6998 10.6786 86.6507 10.5973 87.5419 9.50632C88.3188 8.5552 88.5292 8.65527 90.8841 11.0954C92.2669 12.5275 94.0419 14.5778 94.8285 15.6521ZM82.0835 6.13141C81.313 6.83759 80.5203 6.79534 78.9244 5.96216C77.7527 5.35049 75.523 4.57498 73.9691 4.23858C71.6801 3.7431 71.1663 3.44043 71.2623 2.64324C71.4431 1.14547 71.7939 0.928447 73.5002 1.25703C75.3388 1.61136 81.4952 3.97472 82.4515 4.69294C82.8523 4.99366 82.708 5.55855 82.0835 6.13141ZM101.274 26.5722C102.788 29.9591 103.814 34.0429 103.307 34.6635C102.345 35.8411 101.061 34.2197 99.7593 30.1854C98.9829 27.7789 98.1687 25.5273 97.9509 25.1824C97.5679 24.5774 99.2337 23.2 99.7947 23.6582C99.9472 23.7828 100.612 25.0935 101.274 26.5722ZM65.078 1.99453C64.9286 2.4471 62.9393 3.08736 60.6574 3.41599C58.3751 3.74511 56.0727 4.29831 55.5401 4.64604C54.7713 5.14862 54.4646 5.01832 54.0461 4.01315C53.7565 3.31744 53.6494 2.58913 53.8079 2.39504C53.9665 2.20094 56.3043 1.58151 59.0033 1.01896C63.7842 0.0217805 65.6303 0.318507 65.078 1.99453ZM102.864 50.5722C102.274 51.7367 101.675 52.2493 100.998 52.1679C99.5497 51.9927 99.187 51.5625 99.8275 50.7783C100.138 50.3984 100.815 48.048 101.331 45.5556C102.176 41.4827 102.391 41.0449 103.453 41.2296C104.412 41.3964 104.55 42.1362 104.184 45.1459C103.936 47.1866 103.342 49.6286 102.864 50.5722ZM138.362 71.1C138.255 71.7717 130.112 77.4083 129.1 77.5103C128.689 77.5517 128.206 77.1576 128.026 76.6343C127.533 75.2088 136.456 68.9478 137.626 69.8977C138.077 70.2639 138.408 70.8053 138.362 71.1ZM45.9914 11.9967C44.2872 14.3725 42.8577 16.3448 42.8153 16.3788C42.773 16.4128 42.2489 16.1663 41.6506 15.8309C40.7325 15.3158 40.8108 14.7931 42.1527 12.4845C44.4113 8.59815 47.518 5.80162 48.4035 6.85743C48.9614 7.5221 48.5072 8.48909 45.9914 11.9967ZM97.0857 60.0626C96.4649 60.8225 94.7237 62.6685 93.2165 64.165C90.6909 66.672 90.3824 66.8106 89.3011 65.9273C88.4071 65.197 88.3541 64.8172 89.0787 64.3334C89.6022 63.9839 91.3706 62.1609 93.0088 60.2808C95.8152 57.0606 96.052 56.9159 97.1004 57.7723C98.0022 58.5089 97.999 58.9444 97.0857 60.0626ZM122.117 79.8031C122.42 80.7119 122.076 81.014 119.588 82.0247C118.004 82.6676 115.506 83.4397 114.035 83.7402C111.815 84.1933 111.322 84.0839 111.129 83.0942C110.927 82.0623 111.528 81.7099 115.61 80.4692C118.201 79.6812 120.487 78.8356 120.687 78.5902C121.151 78.0229 121.669 78.4628 122.117 79.8031ZM40.1772 25.0263C39.8515 26.1096 39.5025 28.4101 39.4023 30.1391C39.2397 32.9333 39.073 33.2975 37.9003 33.4153C36.7276 33.5339 36.6016 33.1735 36.7674 30.1737C37.0071 25.8367 37.8627 21.8284 38.5641 21.7581C39.9333 21.6201 40.7215 23.2169 40.1772 25.0263ZM104.499 83.4645C104.509 84.788 103.453 84.8905 97.3601 84.1561C93.2505 83.6607 91.8749 82.8058 93.3281 81.6502C93.951 81.1543 103.327 81.5865 104.164 82.1498C104.343 82.2707 104.494 82.8627 104.499 83.4645ZM84.3069 70.6473C84.5752 71.4539 84.0419 71.9843 81.1167 73.8186C79.1854 75.03 77.6243 76.217 77.6488 76.4557C77.6729 76.6949 79.6088 77.4983 81.9512 78.2415C84.2936 78.9848 86.302 79.8595 86.4148 80.1857C86.9714 81.7992 85.1055 81.9496 80.7342 80.6433C75.3169 79.024 75.2037 78.959 74.2006 76.9259L73.4765 75.458L78.4637 72.3382C81.2072 70.6226 83.5715 69.3227 83.7184 69.4491C83.8644 69.5756 84.1298 70.1152 84.3069 70.6473ZM41.0177 43.7896C41.6008 45.7935 42.3966 47.9204 42.7858 48.5159C43.4591 49.5469 42.7207 51.2461 41.5485 51.3643C40.8494 51.4348 39.2101 47.682 38.1181 43.512C37.4248 40.8644 37.4797 40.2371 38.4193 40.0531C39.915 39.7602 39.7935 39.5859 41.0177 43.7896ZM51.5525 61.3043C53.8054 63.6263 54.1294 64.2412 53.5023 65.0089C52.6005 66.113 51.0389 64.9907 47.0286 60.3567C44.975 57.9844 44.5665 57.1786 45.2262 56.8016C45.6953 56.5327 46.2302 56.1287 46.4148 55.9027C46.5995 55.6766 47.223 56.173 47.8008 57.0058C48.3782 57.8381 50.0665 59.7725 51.5525 61.3043ZM68.9398 75.0132C68.4191 76.1495 66.6445 75.4738 60.3176 71.7316C58.2233 70.4929 58.0829 70.2686 58.8306 69.3533C59.2845 68.7976 59.8387 68.4521 60.0619 68.5869C60.2851 68.7216 62.1056 69.7156 64.1072 70.797C69.2626 73.5807 69.4999 73.7882 68.9398 75.0132ZM68.3042 79.3587C68.5628 80.1348 68.1446 80.459 66.1082 81.0592C62.4645 82.1331 57.6619 82.8536 57.1164 82.408C55.8226 81.3511 57.335 80.4076 62.1738 79.2527C67.8566 77.8963 67.8178 77.8953 68.3042 79.3587ZM44.2668 82.4196C38.9194 82.2302 38.2288 82.0591 38.1091 80.8896C37.989 79.7198 38.2462 79.5708 40.4147 79.549C41.7574 79.5354 44.5571 79.6644 46.6371 79.835C50.0082 80.1112 50.4117 80.2802 50.3542 81.3889C50.2991 82.4462 49.3851 82.601 44.2668 82.4196ZM31.2445 83.8291C31.1939 84.2091 29.6404 85.4708 27.7916 86.6326C25.9427 87.7935 23.9901 89.2828 23.4528 89.9406C22.3169 91.3312 21.3735 91.3539 20.6045 90.0083C19.9748 88.9081 21.0819 87.8482 26.5745 84.2923C29.771 82.2236 31.4787 82.0546 31.2445 83.8291ZM16.1197 97.9447C15.5258 98.6797 14.2267 100.95 13.233 102.989C11.7766 105.977 11.2433 106.675 10.4861 106.584C9.96905 106.522 9.39069 106.349 9.19981 106.201C8.67378 105.79 10.5215 101.841 12.9522 98.1818C15.0077 95.0866 15.1789 94.957 16.1615 95.7596C16.9698 96.4199 16.9604 96.9037 16.1197 97.9447ZM9.24468 116.604C9.1183 118.201 9.15609 120.66 9.32876 122.069C9.65722 124.75 9.19056 125.915 7.85985 125.74C6.89109 125.612 6.23911 120.77 6.58848 116.295C6.79564 113.64 7.04698 113.009 7.85723 113.107C9.41125 113.295 9.49053 113.495 9.24468 116.604ZM15.6311 141.788C16.2835 142.994 16.2077 143.189 14.965 143.512C13.6203 143.862 13.4554 143.654 10.9562 138.447C8.64004 133.624 8.48611 132.961 9.57912 132.506C10.7518 132.018 10.9032 132.189 12.8522 136.211C13.976 138.53 15.2266 141.04 15.6311 141.788ZM19.216 154.791C19.3922 157.623 19.3739 160.138 19.1766 160.379C18.9793 160.621 18.1918 160.696 17.4265 160.546C16.4292 160.35 16.158 160.123 16.4683 159.743C16.7064 159.452 16.752 157.164 16.5698 154.659C16.3459 151.574 16.5449 149.931 17.1874 149.563C17.7094 149.265 18.3074 149.16 18.5165 149.331C18.7256 149.502 19.0403 151.959 19.216 154.791ZM16.2022 169.331C15.6891 170.299 14.1514 172.459 12.7858 174.13C10.5578 176.858 10.2289 177.071 9.59282 176.199C8.99848 175.383 9.36009 174.555 11.8336 171.065C13.4559 168.775 15.0256 166.818 15.3222 166.716C16.5863 166.28 17.0655 167.703 16.2022 169.331ZM5.97853 161.838C7.29413 165.191 6.76112 170.796 4.55019 176.86C3.5258 179.67 3.06682 181.903 3.44872 182.215C3.80883 182.509 5.61584 182.078 7.46302 181.257C11.6382 179.402 13.1861 179.04 20.5519 178.199C25.7813 177.602 26.4504 177.674 26.5686 178.846C26.6863 180.019 26.0308 180.24 20.6645 180.841C13.9844 181.588 11.7626 182.147 7.97901 184.032C6.57319 184.732 4.54198 185.213 3.46501 185.099C0.136513 184.748 -0.212852 182.842 1.89883 176.555C4.19767 169.71 4.60281 166.076 3.44011 162.72C2.93585 161.264 2.82883 159.687 3.20193 159.216C4.09783 158.083 4.7459 158.696 5.97853 161.838Z" fill="url(#paint0_linear_0_2352)"/>
<defs>
<linearGradient id="paint0_linear_0_2352" x1="147.19" y1="-26.9347" x2="0.810441" y2="152.264" gradientUnits="userSpaceOnUse">
<stop stop-color="#FFBA3B"/>
<stop offset="0.5315" stop-color="#FFA53B"/>
<stop offset="1" stop-color="#FF983B"/>
</linearGradient>
</defs>
</svg>
