<svg width="17" height="17" viewBox="0 0 17 17" fill="none" xmlns="http://www.w3.org/2000/svg">
<path d="M13.6483 3.77512C12.7062 3.33596 11.6862 3.01721 10.6237 2.83304C10.6144 2.83274 10.6051 2.83449 10.5965 2.83816C10.588 2.84183 10.5803 2.84734 10.5741 2.85429C10.4466 3.08804 10.2979 3.39262 10.1987 3.62637C9.07174 3.45637 7.92566 3.45637 6.7987 3.62637C6.69953 3.38554 6.55078 3.08804 6.4162 2.85429C6.40912 2.84012 6.38787 2.83304 6.36662 2.83304C5.30412 3.01721 4.2912 3.33596 3.34203 3.77512C3.33495 3.77512 3.32787 3.78221 3.32078 3.78929C1.39412 6.67221 0.862866 9.47721 1.12495 12.2539C1.12495 12.268 1.13203 12.2822 1.1462 12.2893C2.4212 13.2243 3.64662 13.791 4.85787 14.1664C4.87912 14.1735 4.90037 14.1664 4.90745 14.1522C5.19078 13.7626 5.44578 13.3518 5.66537 12.9197C5.67953 12.8914 5.66537 12.863 5.63703 12.856C5.23328 12.7001 4.85078 12.516 4.47537 12.3035C4.44703 12.2893 4.44703 12.2468 4.46828 12.2255C4.5462 12.1689 4.62412 12.1051 4.70203 12.0485C4.7162 12.0343 4.73745 12.0343 4.75162 12.0414C7.18828 13.1535 9.8162 13.1535 12.2245 12.0414C12.2387 12.0343 12.2599 12.0343 12.2741 12.0485C12.352 12.1122 12.4299 12.1689 12.5079 12.2326C12.5362 12.2539 12.5362 12.2964 12.5008 12.3105C12.1324 12.5301 11.7429 12.7072 11.3391 12.863C11.3108 12.8701 11.3037 12.9055 11.3108 12.9268C11.5374 13.3589 11.7924 13.7697 12.0687 14.1593C12.0899 14.1664 12.1112 14.1735 12.1324 14.1664C13.3508 13.791 14.5762 13.2243 15.8512 12.2893C15.8654 12.2822 15.8724 12.268 15.8724 12.2539C16.1841 9.04512 15.3554 6.26137 13.6766 3.78929C13.6695 3.78221 13.6624 3.77512 13.6483 3.77512ZM6.0337 10.561C5.30412 10.561 4.69495 9.88804 4.69495 9.05929C4.69495 8.23054 5.28995 7.55762 6.0337 7.55762C6.78453 7.55762 7.37953 8.23762 7.37245 9.05929C7.37245 9.88804 6.77745 10.561 6.0337 10.561ZM10.9708 10.561C10.2412 10.561 9.63203 9.88804 9.63203 9.05929C9.63203 8.23054 10.227 7.55762 10.9708 7.55762C11.7216 7.55762 12.3166 8.23762 12.3095 9.05929C12.3095 9.88804 11.7216 10.561 10.9708 10.561Z" fill="white"/>
</svg>
