<svg width="200" height="198" viewBox="0 0 200 198" fill="none" xmlns="http://www.w3.org/2000/svg">
<path opacity="0.3" fill-rule="evenodd" clip-rule="evenodd" d="M194.712 175.342C179.49 175.8 173.63 176.004 173.57 176.079C173.532 176.126 176.487 177.694 180.135 179.565L186.767 182.966L186.742 183.69C186.7 184.928 186.896 197.767 186.958 197.817C186.99 197.843 189.74 192.784 193.068 186.576C196.396 180.367 199.098 175.27 199.071 175.25C199.045 175.229 197.083 175.271 194.712 175.342ZM183.498 184.23C183.305 184.253 182.311 184.639 181.29 185.086C179.768 185.753 179.429 185.985 179.415 186.369C179.404 186.642 179.54 186.877 179.739 186.929C180.175 187.044 183.961 185.315 184.042 184.964C184.14 184.54 183.876 184.184 183.498 184.23ZM176.654 187.242C176.426 187.133 174.069 187.863 172.738 188.456C172.066 188.755 171.879 189.419 172.397 189.666C172.676 189.799 176.34 188.515 176.706 188.156C177.001 187.866 176.975 187.394 176.654 187.242ZM169.29 189.763C169.124 189.72 168.057 189.964 166.919 190.305C165.256 190.804 164.842 191.005 164.816 191.326C164.752 192.111 165.182 192.146 167.221 191.521C168.293 191.192 169.279 190.816 169.414 190.684C169.736 190.368 169.668 189.863 169.29 189.763ZM161.817 191.898C161.617 191.803 158.944 192.382 157.643 192.802C157.095 192.98 157.076 193.764 157.616 193.906C157.952 193.994 161.674 193.157 161.982 192.923C162.2 192.758 162.082 192.024 161.817 191.898ZM154.285 193.734C153.914 193.594 150.426 194.189 149.836 194.493C149.499 194.667 149.55 195.178 149.927 195.409C150.336 195.66 154.384 194.846 154.566 194.476C154.777 194.047 154.72 193.898 154.285 193.734ZM146.916 195.276C146.779 195.009 146.358 194.995 144.554 195.192C142.272 195.442 141.697 195.728 142.061 196.435C142.345 196.988 147.155 196.267 147.091 195.681C147.086 195.636 147.007 195.454 146.916 195.276ZM139.087 196.05C138.903 195.902 138.027 195.907 136.595 196.063C134.743 196.266 134.371 196.364 134.29 196.671C134.111 197.352 134.918 197.544 136.996 197.317C138.771 197.123 139.436 196.869 139.386 196.407C139.378 196.336 139.243 196.176 139.087 196.05ZM131.456 196.686C131.347 196.549 130.328 196.441 129.131 196.439C127.272 196.435 126.962 196.482 126.701 196.807C126.153 197.489 126.886 197.757 129.076 197.673C131.515 197.58 132.008 197.375 131.456 196.686ZM121.43 196.376C119.293 196.26 119.134 196.277 118.919 196.641C118.543 197.278 119.089 197.497 121.335 197.612C123.483 197.722 124.034 197.549 123.815 196.833C123.738 196.583 123.146 196.47 121.43 196.376ZM113.706 195.819C111.809 195.591 111.49 195.601 111.252 195.897C110.723 196.556 111.232 196.816 113.502 197.045C114.726 197.169 115.814 197.202 115.921 197.118C116.028 197.035 116.064 196.768 116.001 196.524C115.903 196.149 115.557 196.042 113.706 195.819ZM108.111 195.181C107.762 195.014 104.289 194.419 103.891 194.457C103.475 194.498 103.302 194.985 103.579 195.34C103.815 195.643 107.799 196.395 108.166 196.206C108.473 196.048 108.435 195.335 108.111 195.181ZM98.5188 193.144C96.6219 192.691 96.3021 192.667 96.064 192.964C95.6194 193.518 96.1926 193.87 98.3827 194.389C100.493 194.888 101.007 194.83 100.818 194.114C100.723 193.755 100.268 193.563 98.5188 193.144ZM91.3105 191.062C89.2575 190.377 88.6616 190.321 88.5355 190.801C88.4009 191.312 88.7445 191.527 90.7933 192.215C92.8628 192.909 93.3711 192.896 93.2894 192.15C93.2511 191.8 92.8303 191.569 91.3105 191.062ZM83.944 188.347C81.9096 187.494 81.2295 187.476 81.4434 188.282C81.5962 188.858 85.2398 190.379 85.7893 190.096C86.5032 189.729 85.9214 189.177 83.944 188.347ZM75.8892 140.859C75.3593 140.917 75.2838 141.088 75.4511 141.854C75.499 142.073 75.4483 142.983 75.3385 143.876C75.1944 145.05 75.2109 145.557 75.3979 145.708C76.1775 146.333 76.787 144.524 76.5645 142.244C76.4276 140.842 76.4081 140.802 75.8892 140.859ZM73.809 136.685C73.0297 136.163 72.0612 136.015 70.9368 136.248C70.3766 136.364 70.2214 136.495 70.2573 136.822C70.2828 137.056 70.4501 137.25 70.6289 137.254C72.1244 137.286 72.6995 137.421 73.3818 137.9C74.2159 138.485 74.7817 138.56 74.8916 138.102C74.9869 137.704 74.627 137.233 73.809 136.685ZM77.1125 185.179C75.2695 184.213 74.6081 184.04 74.4034 184.469C74.196 184.904 74.6819 185.327 76.3943 186.201C78.0914 187.067 78.6673 187.219 78.9436 186.875C79.2693 186.47 78.8719 186.102 77.1125 185.179ZM73.6854 147.845C73.4784 147.829 73.0199 148.086 72.6667 148.417C72.3137 148.748 71.5476 149.326 70.9643 149.703C70.2505 150.164 69.9182 150.519 69.9478 150.788C70.0491 151.714 71.1888 151.28 73.3266 149.5C74.3071 148.684 74.4753 147.908 73.6854 147.845ZM67.3743 138.114C66.6751 138.191 64.0809 141.286 64.3226 141.756C64.6096 142.314 65.0961 142.106 66.054 141.016C66.5456 140.457 67.2249 139.703 67.5634 139.34C68.2483 138.607 68.159 138.028 67.3743 138.114ZM70.5503 180.82C69.3477 179.862 68.6911 179.472 68.469 179.587C67.9402 179.859 68.1574 180.38 69.2232 181.395C70.5187 182.629 71.6531 183.31 72.0631 183.099C72.6765 182.783 72.2984 182.214 70.5503 180.82ZM66.3114 151.95C62.7464 152.831 62.4273 152.983 62.7629 153.634C62.9711 154.039 63.7188 153.961 65.8119 153.318C67.453 152.814 67.8197 152.53 67.5387 151.984C67.4179 151.75 67.1541 151.742 66.3114 151.95ZM62.7765 144.348C62.3624 144.394 62.1117 144.768 61.4101 146.392C60.6907 148.056 60.601 148.428 60.8591 148.678C61.3823 149.184 61.6899 148.859 62.5827 146.856C63.5201 144.754 63.558 144.263 62.7765 144.348ZM65.6257 175.859C65.1147 175.183 64.5433 174.428 64.3558 174.181C63.9883 173.696 63.2488 173.646 63.137 174.098C63.0567 174.422 64.5566 176.737 65.3836 177.565C65.7654 177.947 66.0629 178.077 66.2913 177.959C66.8029 177.696 66.6497 177.212 65.6257 175.859ZM60.1025 151.561C59.6866 151.607 59.5474 151.797 59.3868 152.541L59.1875 153.463L57.1613 153.564C55.4025 153.651 55.1223 153.713 55.038 154.033C54.8405 154.783 55.4432 154.991 57.2451 154.793L58.9523 154.607L58.8961 155.34C58.8577 155.84 58.9429 156.141 59.1646 156.287C59.5776 156.56 60.1637 156.267 60.1275 155.806C60.1123 155.612 60.2539 154.756 60.4423 153.903C60.8676 151.976 60.7963 151.485 60.1025 151.561ZM61.9452 169.544C61.7039 168.965 61.3613 168.094 61.1844 167.608C60.9398 166.936 60.7604 166.735 60.4366 166.771C59.7678 166.844 59.7835 167.351 60.5164 169.351C61.2133 171.252 61.6051 171.762 62.1538 171.479C62.543 171.279 62.4989 170.871 61.9452 169.544ZM59.5083 159.164C58.7514 158.965 58.5845 159.59 58.8199 161.741C59.0624 163.956 59.3096 164.442 59.9646 163.993C60.2897 163.771 60.3054 163.458 60.0906 161.496C59.8931 159.691 59.7795 159.236 59.5083 159.164ZM51.5529 153.647C50.176 153.458 47.7812 153.327 47.5582 153.429C47.2654 153.564 47.3319 154.292 47.6509 154.444C47.7821 154.507 48.789 154.642 49.8882 154.744C51.3792 154.883 51.9534 154.862 52.1491 154.66C52.5604 154.235 52.2729 153.747 51.5529 153.647ZM34.4213 0.334561C33.9765 0.29934 32.6754 2.48344 32.8345 2.99866C33.0551 3.71347 33.6564 3.442 34.3325 2.32218C35.0178 1.18642 35.0538 0.384927 34.4213 0.334561ZM31.7616 5.81368C31.6052 5.68808 31.3667 5.59741 31.2318 5.61217C30.9145 5.6469 28.9429 9.32 28.9944 9.78062C29.0384 10.1748 29.5254 10.3747 29.8317 10.1245C30.0765 9.92471 32.0827 6.37649 32.0614 6.18117C32.053 6.10467 31.9181 5.93929 31.7616 5.81368ZM42.5459 152.362C40.222 151.814 39.8788 151.808 39.7458 152.314C39.6048 152.85 40.0404 153.099 41.8776 153.534C44.0738 154.055 44.8798 153.945 44.6408 153.156C44.5803 152.957 43.773 152.651 42.5459 152.362ZM27.6575 12.5352C27.3089 12.5234 26.9881 12.9495 26.1995 14.4711C25.1862 16.4261 25.1106 17.095 25.9131 17.0072C26.3751 16.9566 28.352 13.3738 28.1989 12.8644C28.147 12.6916 27.9035 12.5436 27.6575 12.5352ZM24.3505 19.3708C23.9048 19.0766 23.5701 19.4725 22.6137 21.4253C21.6993 23.2922 21.6238 24.0347 22.3681 23.844C22.6895 23.7614 23.1351 23.1428 23.7747 21.8908C24.7772 19.9284 24.8319 19.6888 24.3505 19.3708ZM35.0406 150.184C32.9469 149.404 32.3824 149.391 32.4627 150.124C32.4958 150.428 33.0416 150.743 34.5202 151.312C36.5558 152.097 37.221 152.106 37.1382 151.351C37.1062 151.058 36.5362 150.74 35.0406 150.184ZM21.1806 26.5176C20.8033 25.7845 20.2358 26.2921 19.3435 28.1607C18.4215 30.0909 18.3335 30.9204 19.0588 30.841C19.3347 30.8108 19.7615 30.1797 20.4016 28.8558C21.4938 26.5968 21.3869 26.918 21.1806 26.5176ZM17.3832 33.3381C17.0123 33.3257 16.7618 33.7071 16.0316 35.3965C15.3179 37.0476 15.1931 37.5262 15.4195 37.7452C15.9579 38.2662 16.2613 37.9536 17.1422 35.9706C18.0762 33.8682 18.1225 33.3629 17.3832 33.3381ZM28.0674 146.961C26.5482 146.11 25.9838 145.894 25.754 146.077C25.2037 146.514 25.4941 146.891 27.1336 147.867C28.7827 148.849 29.5518 149.11 29.9283 148.816C30.3991 148.449 29.9818 148.033 28.0674 146.961ZM14.3009 40.4445C13.9923 40.4783 13.6583 41.0246 13.0487 42.4913C12.1994 44.5358 12.1811 45.1942 12.9796 44.9835C13.2942 44.9004 13.651 44.325 14.1766 43.0532C14.9697 41.1339 15.0063 40.3673 14.3009 40.4445ZM21.6136 142.709C20.411 141.75 19.7544 141.361 19.5323 141.476C18.921 141.79 19.291 142.394 20.885 143.684C22.3593 144.877 22.9711 145.145 23.2951 144.741C23.577 144.39 23.2947 144.049 21.6136 142.709ZM11.4807 47.5653C11.1813 47.5981 10.869 48.1705 10.2893 49.7484C9.56389 51.7233 9.53318 51.9109 9.88907 52.1968C10.101 52.3669 10.3808 52.4232 10.5107 52.3221C10.8872 52.0281 12.2051 48.1396 12.0381 47.8151C11.9548 47.6533 11.704 47.5409 11.4807 47.5653ZM9.14159 54.8692C8.59026 54.7241 8.34556 55.1102 7.6875 57.1632C7.07011 59.0897 7.10217 59.7224 7.81378 59.6445C8.10954 59.6122 8.38997 59.0841 8.8804 57.6355C9.62496 55.4365 9.66552 55.0069 9.14159 54.8692ZM15.9253 137.488C15.1076 136.618 14.4056 135.91 14.3652 135.915C14.0139 135.953 13.6515 136.322 13.6843 136.607C13.7063 136.8 14.3579 137.642 15.1325 138.478C16.1585 139.585 16.6712 139.984 17.0217 139.947C17.8238 139.863 17.5214 139.185 15.9253 137.488ZM6.9615 62.3353C6.35705 61.9361 6.09812 62.3247 5.48932 64.5431C4.94108 66.5403 4.92507 66.7298 5.28115 67.0154C5.82813 67.4547 6.08441 67.0577 6.75311 64.7345C7.40486 62.4699 7.39203 62.6195 6.9615 62.3353ZM11.2833 131.63C9.99966 129.745 9.88199 129.636 9.39803 129.885C8.90076 130.141 9.06158 130.619 10.1988 132.262C11.4406 134.057 11.7249 134.318 12.1785 134.085C12.6858 133.823 12.5804 133.534 11.2833 131.63ZM5.11065 69.9211C4.99286 69.7735 4.71932 69.7066 4.5029 69.7722C3.93716 69.944 2.99306 74.0879 3.42459 74.5056C3.94293 75.0072 4.32118 74.4343 4.8288 72.3781C5.40175 70.0575 5.37879 70.2568 5.11065 69.9211ZM2.98207 77.3658C2.5269 77.4156 2.39328 77.8368 1.98535 80.5114C1.81368 81.6359 1.82964 81.9773 2.06175 82.1636C2.58476 82.5835 2.99455 81.953 3.31462 80.2361C3.69161 78.2135 3.58576 77.2997 2.98207 77.3658ZM6.12774 123.084C5.68239 123.133 5.62945 123.23 5.73683 123.804C5.95081 124.949 7.36189 127.48 7.80615 127.516C8.5369 127.576 8.4807 127.009 7.55745 125.009C6.73909 123.236 6.58868 123.034 6.12774 123.084ZM2.05477 84.9944C1.49074 84.8459 1.25515 85.485 1.07546 87.6506C0.950887 89.1501 0.977855 89.6752 1.18768 89.8437C1.72492 90.2749 2.12981 89.584 2.3228 87.9074C2.56945 85.7667 2.50924 85.114 2.05477 84.9944ZM4.70087 117.511C4.26134 116.135 4.04496 115.728 3.73859 115.703C2.95962 115.64 2.925 116.073 3.54577 118.109C4.16602 120.142 4.53867 120.703 5.0822 120.424C5.48058 120.218 5.42169 119.767 4.70087 117.511ZM1.46187 92.6905C0.886617 92.4098 0.717229 92.7884 0.638844 94.5282C0.561234 96.2591 0.762504 97.6517 1.09993 97.7175C1.63027 97.8209 1.82383 97.2323 1.89016 95.3133C1.97181 92.9574 1.96858 92.9376 1.46187 92.6905ZM2.40613 108.209C2.26317 108.094 2.00198 108.075 1.82552 108.165C1.57452 108.295 1.54222 108.669 1.67737 109.886C1.77231 110.742 1.94911 111.796 2.07024 112.229C2.25632 112.894 2.37336 113.007 2.82469 112.957L3.35893 112.899L3.01243 110.658C2.82175 109.425 2.54886 108.323 2.40613 108.209ZM1.76073 100.564C1.64294 100.416 1.36948 100.35 1.15314 100.416C0.811499 100.521 0.769569 100.832 0.833852 102.78C0.895544 104.644 0.967854 105.072 1.26184 105.308C1.90978 105.828 2.21255 105.162 2.10752 103.447C2.05577 102.601 2.00471 101.667 1.99413 101.37C1.98355 101.074 1.8785 100.711 1.76073 100.564Z" fill="url(#paint0_linear_0_2351)"/>
<defs>
<linearGradient id="paint0_linear_0_2351" x1="206.749" y1="88.6183" x2="21.3097" y2="108.916" gradientUnits="userSpaceOnUse">
<stop stop-color="#FFBA3B"/>
<stop offset="0.5315" stop-color="#FFA53B"/>
<stop offset="1" stop-color="#FF983B"/>
</linearGradient>
</defs>
</svg>
