<svg width="181" height="54" viewBox="0 0 181 54" fill="none" xmlns="http://www.w3.org/2000/svg">
<path d="M102.292 29.2917C102.292 30.3132 101.909 31.1644 101.228 31.888C100.505 32.6115 99.6533 32.952 98.6318 32.952C97.6103 32.952 96.7591 32.569 96.0356 31.888C95.3546 31.1644 94.9715 30.2707 94.9715 29.2917V23.0352H91.9922V29.2917C91.9922 31.1219 92.6306 32.6541 93.95 33.9735C95.2694 35.2929 96.8017 35.9314 98.6318 35.9314C100.505 35.9314 102.037 35.2929 103.314 34.0161C104.59 32.7392 105.229 31.1644 105.229 29.3343V23.0777H102.292V29.2917Z" fill="#32352C"/>
<path d="M180.308 26.185C180.265 26.0573 180.265 25.887 180.265 25.7593C180.223 25.6742 180.18 25.5891 180.138 25.4614C180.01 25.3337 179.882 25.206 179.797 25.0358C179.669 24.9081 179.584 24.7804 179.499 24.6527C179.457 24.6953 179.457 24.7379 179.414 24.7379C179.201 24.4399 178.946 24.1846 178.648 23.9718C177.626 23.1205 176.264 22.6523 174.775 22.6523C173.285 22.6523 171.923 23.1631 170.902 23.9718C169.88 24.7804 169.199 26.0147 169.199 27.3767V35.5911H171.072V27.3767C171.072 26.6531 171.412 25.9722 172.093 25.4189C172.732 24.8656 173.711 24.5251 174.775 24.5251C175.839 24.5251 176.775 24.8656 177.456 25.4189C178.095 25.9722 178.478 26.6531 178.478 27.3767V35.5911H180.35V27.3767C180.35 27.2916 180.35 27.2064 180.35 27.0788C180.265 26.8234 180.265 26.4829 180.308 26.185Z" fill="#32352C"/>
<path d="M84.4588 31.9733C84.4162 32.1862 84.2034 32.3564 83.9906 32.3564C83.7778 32.3564 83.565 32.1862 83.5224 32.0159L79.6067 19.8007C79.3514 19.0346 78.6704 18.5238 77.8617 18.5238C77.053 18.5238 76.372 19.0346 76.1167 19.8007L72.201 32.0585C72.1159 32.2287 71.9456 32.399 71.7328 32.399C71.4774 32.399 71.3072 32.2287 71.2646 32.0159C70.1155 26.4829 68.8812 20.4817 68.3279 17.5449H64.625C65.1357 20.0986 66.4551 26.6957 67.732 32.782C68.1576 34.6547 69.8175 36.0593 71.7754 36.0593C73.6055 36.0593 75.1803 34.8675 75.7336 33.2076L77.9468 26.3552L80.16 33.2076C80.7133 34.8675 82.2456 36.0593 84.1183 36.0593C86.1187 36.0593 87.7786 34.6547 88.1616 32.782C89.4385 26.7383 90.7579 20.0986 91.2686 17.5449H87.5658C86.7997 20.4391 85.6079 26.4403 84.4588 31.9733Z" fill="#32352C"/>
<path d="M120.167 27.7598L120.082 27.5044C119.784 26.3978 119.231 25.4189 118.38 24.5676C117.103 23.2908 115.528 22.6523 113.698 22.6523C111.868 22.6523 110.336 23.2908 109.016 24.5676C107.739 25.8445 107.058 27.4193 107.058 29.2494C107.058 31.1221 107.697 32.6544 108.974 33.9312C110.251 35.2081 111.825 35.8465 113.656 35.8465C115.486 35.8465 117.018 35.2081 118.295 33.9312L118.593 33.5907L119.103 35.4634H122.168L120.167 27.7598ZM116.337 31.8457C115.656 32.5692 114.762 32.9097 113.741 32.9097C112.719 32.9097 111.868 32.5267 111.144 31.8457C110.421 31.1221 110.08 30.2709 110.08 29.2494C110.08 28.2279 110.463 27.3767 111.144 26.6531C111.868 25.9296 112.719 25.5891 113.741 25.5891C114.72 25.5891 115.613 25.9722 116.294 26.6531C117.018 27.3767 117.358 28.2279 117.358 29.2068C117.401 30.2283 117.018 31.1221 116.337 31.8457Z" fill="#32352C"/>
<path d="M165.325 19.418C164.602 19.418 164.006 20.0138 164.006 20.7374C164.006 21.4609 164.602 22.0568 165.325 22.0568C166.049 22.0568 166.645 21.4609 166.645 20.7374C166.645 20.0138 166.049 19.418 165.325 19.418Z" fill="#32352C"/>
<path d="M143.875 24.2692C144.939 24.2692 145.96 24.6097 146.769 25.2056L147.876 23.6733C146.769 22.8647 145.407 22.3965 143.917 22.3965C140.129 22.3965 137.107 25.4609 137.107 29.2489C137.107 33.0369 140.172 36.1014 143.917 36.1014C145.407 36.1014 146.769 35.6332 147.876 34.8245L146.769 33.2923C145.96 33.8882 144.981 34.2286 143.875 34.2286C141.151 34.2286 138.938 32.0154 138.938 29.2489C138.938 26.4824 141.151 24.2692 143.875 24.2692Z" fill="#32352C"/>
<path d="M155.238 22.3965C151.45 22.3965 148.428 25.4609 148.428 29.2489C148.428 33.0369 151.492 36.1014 155.238 36.1014C159.026 36.1014 162.047 33.0369 162.047 29.2489C162.09 25.4609 159.026 22.3965 155.238 22.3965ZM155.238 34.2286C152.514 34.2286 150.3 32.0154 150.3 29.2489C150.3 26.4824 152.514 24.2692 155.238 24.2692C157.962 24.2692 160.175 26.4824 160.175 29.2489C160.217 31.9729 158.004 34.1861 155.238 34.2286Z" fill="#32352C"/>
<path d="M134.298 24.3544L134.128 24.5247C132.851 23.2478 131.276 22.6094 129.446 22.6094C127.616 22.6094 126.084 23.2478 124.764 24.5247C123.445 25.8015 122.807 27.3763 122.807 29.2064C122.807 31.0792 123.445 32.6114 124.722 33.8882C125.999 35.1651 127.574 35.8035 129.404 35.8035C131.234 35.8035 132.766 35.1651 134.086 33.8457C135.362 32.5263 136.001 30.994 136.001 29.1639C136.001 27.3337 135.362 25.8015 134.086 24.4821L134.298 24.3544ZM132.043 31.8453C131.362 32.5688 130.468 32.9093 129.489 32.9093C128.467 32.9093 127.616 32.5263 126.893 31.8453C126.169 31.1217 125.829 30.2705 125.829 29.249C125.829 28.2275 126.212 27.3763 126.893 26.6527C127.616 25.9292 128.467 25.5887 129.489 25.5887C130.468 25.5887 131.362 25.9718 132.043 26.6527C132.766 27.3763 133.107 28.2275 133.107 29.2064C133.107 30.2279 132.724 31.1217 132.043 31.8453Z" fill="#32352C"/>
<path d="M166.347 27.2065C166.347 26.9937 166.347 26.7384 166.347 26.5255C166.39 25.8446 166.347 25.1636 166.39 24.5251V23.5037C166.304 23.5037 166.177 23.5462 166.049 23.5462C165.964 23.5462 165.921 23.5462 165.836 23.5462C165.751 23.5462 165.666 23.5462 165.538 23.5462C165.496 23.5462 165.453 23.5462 165.411 23.5462C165.325 23.5462 165.283 23.5462 165.198 23.5462C165.155 23.5462 165.113 23.5462 165.07 23.5462C165.028 23.5462 164.942 23.5462 164.9 23.5462C164.815 23.5462 164.73 23.5462 164.645 23.5462C164.602 23.5462 164.559 23.5462 164.517 23.5462C164.474 23.5462 164.474 23.5462 164.432 23.5462V35.9743H166.304V28.1003C166.304 28.0578 166.304 28.0152 166.304 27.9726C166.262 27.8024 166.262 27.6321 166.262 27.4193C166.347 27.2917 166.347 27.2491 166.347 27.2065Z" fill="#32352C"/>
<path d="M27.1269 51.3397C13.5923 51.3397 2.61133 40.3588 2.61133 26.8242C2.61133 13.2895 13.5923 2.30859 27.1269 2.30859C40.6615 2.30859 51.5999 13.247 51.5999 26.7816C51.5999 40.3588 40.6615 51.3397 27.1269 51.3397Z" fill="white"/>
<path d="M44.6626 13.1184C52.2386 22.8224 50.4935 36.7827 40.7895 44.3587C31.0854 51.9347 17.1251 50.1896 9.54916 40.4855C1.97317 30.7815 3.7182 16.8212 13.3797 9.24523C23.1263 1.66925 37.0866 3.41428 44.6626 13.1184Z" fill="url(#paint0_linear_0_22)"/>
<path d="M38.4921 14.0978V32.527C38.4921 34.9531 36.5768 36.9535 34.1934 36.9535C31.8099 36.9535 29.8946 34.9531 29.8946 32.527V16.609L24.1914 18.2689V27.1217C24.1914 29.5477 22.2761 31.5481 19.8926 31.5481C17.5092 31.5481 15.5939 29.5477 15.5939 27.1217V20.78L9.89062 22.3974V27.0791C9.89062 32.7399 14.3596 37.294 19.8501 37.294C21.6377 37.294 23.2976 36.8258 24.7447 35.9745C26.1492 39.9328 29.8095 42.7419 34.1508 42.7419C39.6413 42.7419 44.1103 38.1452 44.1103 32.527V12.4805L38.4921 14.0978Z" fill="white"/>
<path d="M27.1276 0.0947266C12.4013 0.0947266 0.441406 12.0546 0.441406 26.8235C0.441406 41.5924 12.4013 53.5523 27.1276 53.5523C41.854 53.5523 53.8138 41.5924 53.8138 26.8235C53.8138 12.0546 41.854 0.0947266 27.1276 0.0947266ZM27.1276 51.3391C13.593 51.3391 2.61206 40.3581 2.61206 26.8235C2.61206 13.2889 13.593 2.30794 27.1276 2.30794C40.6622 2.30794 51.6006 13.2463 51.6006 26.7809C51.6006 40.3581 40.6622 51.3391 27.1276 51.3391Z" fill="#32352C"/>
<defs>
<linearGradient id="paint0_linear_0_22" x1="4.87269" y1="26.7995" x2="49.3677" y2="26.7995" gradientUnits="userSpaceOnUse">
<stop stop-color="#FFBA3B"/>
<stop offset="0.5315" stop-color="#FFA53B"/>
<stop offset="1" stop-color="#FF983B"/>
</linearGradient>
</defs>
</svg>
