<svg width="18" height="18" viewBox="0 0 18 18" fill="none" xmlns="http://www.w3.org/2000/svg">
<path d="M15.8506 4.62022C15.3426 4.83936 14.7898 4.99708 14.2203 5.0585C14.8115 4.70727 15.2543 4.15239 15.4654 3.49796C14.9107 3.82798 14.3029 4.05939 13.6692 4.18194C13.4043 3.89876 13.0839 3.67317 12.728 3.51922C12.3721 3.36527 11.9884 3.28626 11.6006 3.28712C10.0317 3.28712 8.77003 4.5588 8.77003 6.11934C8.77003 6.33848 8.79659 6.55762 8.83976 6.76846C6.49064 6.64561 4.39552 5.52335 3.00265 3.80508C2.74885 4.23858 2.61586 4.73216 2.61749 5.23448C2.61749 6.21729 3.1172 7.08389 3.87921 7.59356C3.43015 7.57588 2.9916 7.45245 2.59923 7.23331V7.26817C2.59923 8.64444 3.57208 9.78497 4.86866 10.0473C4.62522 10.1105 4.37478 10.1429 4.12325 10.1436C3.93898 10.1436 3.76466 10.1253 3.58868 10.1004C3.94728 11.2227 4.99152 12.0378 6.23497 12.0644C5.26212 12.8264 4.04357 13.2746 2.72042 13.2746C2.48302 13.2746 2.26388 13.2663 2.03644 13.2398C3.29152 14.0449 4.78068 14.5098 6.38439 14.5098C11.5906 14.5098 14.4395 10.1967 14.4395 6.45303C14.4395 6.33018 14.4395 6.20733 14.4312 6.08448C14.9823 5.68106 15.4654 5.18135 15.8506 4.62022Z" fill="white"/>
</svg>
