<svg width="263" height="78" viewBox="0 0 263 78" fill="none" xmlns="http://www.w3.org/2000/svg">
<path d="M148.61 42.6014C148.61 44.0918 148.051 45.3339 147.058 46.3896C146.002 47.4453 144.76 47.9422 143.27 47.9422C141.779 47.9422 140.537 47.3832 139.481 46.3896C138.488 45.3339 137.929 44.0297 137.929 42.6014V33.4724H133.582V42.6014C133.582 45.2718 134.513 47.5074 136.438 49.4326C138.364 51.3578 140.599 52.2893 143.27 52.2893C146.002 52.2893 148.238 51.3578 150.101 49.4947C151.964 47.6317 152.895 45.3339 152.895 42.6635V33.5345H148.61V42.6014Z" fill="#32352C"/>
<path d="M262.443 38.0683C262.381 37.882 262.381 37.6336 262.381 37.4473C262.319 37.3231 262.257 37.1988 262.195 37.0125C262.008 36.8262 261.822 36.6399 261.698 36.3915C261.511 36.2052 261.387 36.0189 261.263 35.8326C261.201 35.8947 261.201 35.9568 261.139 35.9568C260.828 35.5221 260.456 35.1495 260.021 34.839C258.531 33.5969 256.543 32.9138 254.37 32.9138C252.196 32.9138 250.209 33.659 248.718 34.839C247.228 36.0189 246.234 37.8199 246.234 39.8071V51.7928H248.967V39.8071C248.967 38.7514 249.464 37.7578 250.457 36.9504C251.389 36.1431 252.817 35.6463 254.37 35.6463C255.922 35.6463 257.289 36.1431 258.282 36.9504C259.214 37.7578 259.773 38.7514 259.773 39.8071V51.7928H262.505V39.8071C262.505 39.6829 262.505 39.5587 262.505 39.3724C262.381 38.9998 262.381 38.503 262.443 38.0683Z" fill="#32352C"/>
<path d="M122.59 46.514C122.527 46.8245 122.217 47.0729 121.906 47.0729C121.596 47.0729 121.285 46.8245 121.223 46.5761L115.51 28.7528C115.137 27.635 114.144 26.8898 112.964 26.8898C111.784 26.8898 110.79 27.635 110.418 28.7528L104.704 46.6382C104.58 46.8866 104.332 47.135 104.021 47.135C103.648 47.135 103.4 46.8866 103.338 46.5761C101.661 38.5028 99.8603 29.7465 99.053 25.4614H93.6501C94.3953 29.1875 96.3205 38.8133 98.1835 47.6939C98.8045 50.4264 101.227 52.4758 104.083 52.4758C106.754 52.4758 109.051 50.7369 109.859 48.3149L113.088 38.3165L116.317 48.3149C117.125 50.7369 119.36 52.4758 122.093 52.4758C125.012 52.4758 127.434 50.4264 127.992 47.6939C129.855 38.8754 131.781 29.1875 132.526 25.4614H127.123C126.005 29.6844 124.266 38.4407 122.59 46.514Z" fill="#32352C"/>
<path d="M174.692 40.366L174.568 39.9934C174.133 38.3788 173.326 36.9504 172.084 35.7084C170.221 33.8453 167.923 32.9138 165.253 32.9138C162.582 32.9138 160.347 33.8453 158.422 35.7084C156.558 37.5715 155.565 39.8692 155.565 42.5396C155.565 45.2721 156.496 47.5078 158.359 49.3708C160.222 51.2339 162.52 52.1654 165.191 52.1654C167.861 52.1654 170.097 51.2339 171.96 49.3708L172.394 48.874L173.14 51.6065H177.611L174.692 40.366ZM169.103 46.3278C168.109 47.3836 166.805 47.8804 165.315 47.8804C163.824 47.8804 162.582 47.3215 161.527 46.3278C160.471 45.2721 159.974 44.0301 159.974 42.5396C159.974 41.0492 160.533 39.8071 161.527 38.7514C162.582 37.6957 163.824 37.1988 165.315 37.1988C166.743 37.1988 168.047 37.7578 169.041 38.7514C170.097 39.8071 170.593 41.0492 170.593 42.4775C170.656 43.968 170.097 45.2721 169.103 46.3278Z" fill="#32352C"/>
<path d="M240.582 28.1946C239.526 28.1946 238.657 29.064 238.657 30.1197C238.657 31.1755 239.526 32.0449 240.582 32.0449C241.638 32.0449 242.507 31.1755 242.507 30.1197C242.507 29.064 241.638 28.1946 240.582 28.1946Z" fill="#32352C"/>
<path d="M209.283 35.273C210.836 35.273 212.326 35.7698 213.506 36.6393L215.121 34.4036C213.506 33.2236 211.519 32.5405 209.346 32.5405C203.818 32.5405 199.409 37.0119 199.409 42.5389C199.409 48.066 203.881 52.5373 209.346 52.5373C211.519 52.5373 213.506 51.8542 215.121 50.6743L213.506 48.4386C212.326 49.308 210.898 49.8049 209.283 49.8049C205.309 49.8049 202.08 46.5756 202.08 42.5389C202.08 38.5023 205.309 35.273 209.283 35.273Z" fill="#32352C"/>
<path d="M225.863 32.5405C220.336 32.5405 215.927 37.0119 215.927 42.5389C215.927 48.066 220.398 52.5373 225.863 52.5373C231.39 52.5373 235.799 48.066 235.799 42.5389C235.861 37.0119 231.39 32.5405 225.863 32.5405ZM225.863 49.8049C221.889 49.8049 218.659 46.5756 218.659 42.5389C218.659 38.5023 221.889 35.273 225.863 35.273C229.838 35.273 233.067 38.5023 233.067 42.5389C233.129 46.5135 229.9 49.7428 225.863 49.8049Z" fill="#32352C"/>
<path d="M195.31 35.3973L195.062 35.6457C193.199 33.7826 190.901 32.8511 188.231 32.8511C185.56 32.8511 183.325 33.7826 181.399 35.6457C179.474 37.5087 178.543 39.8065 178.543 42.4769C178.543 45.2094 179.474 47.445 181.337 49.3081C183.2 51.1711 185.498 52.1027 188.168 52.1027C190.839 52.1027 193.075 51.1711 195 49.246C196.863 47.3208 197.794 45.0852 197.794 42.4148C197.794 39.7444 196.863 37.5087 195 35.5836L195.31 35.3973ZM192.019 46.3272C191.025 47.3829 189.721 47.8797 188.293 47.8797C186.802 47.8797 185.56 47.3208 184.504 46.3272C183.449 45.2715 182.952 44.0294 182.952 42.539C182.952 41.0485 183.511 39.8065 184.504 38.7508C185.56 37.695 186.802 37.1982 188.293 37.1982C189.721 37.1982 191.025 37.7571 192.019 38.7508C193.075 39.8065 193.571 41.0485 193.571 42.4769C193.571 43.9673 193.012 45.2715 192.019 46.3272Z" fill="#32352C"/>
<path d="M242.072 39.5594C242.072 39.2488 242.072 38.8762 242.072 38.5657C242.134 37.5721 242.072 36.5785 242.134 35.6469V34.1565C242.01 34.1565 241.824 34.2186 241.638 34.2186C241.513 34.2186 241.451 34.2186 241.327 34.2186C241.203 34.2186 241.079 34.2186 240.892 34.2186C240.83 34.2186 240.768 34.2186 240.706 34.2186C240.582 34.2186 240.52 34.2186 240.396 34.2186C240.333 34.2186 240.271 34.2186 240.209 34.2186C240.147 34.2186 240.023 34.2186 239.961 34.2186C239.837 34.2186 239.712 34.2186 239.588 34.2186C239.526 34.2186 239.464 34.2186 239.402 34.2186C239.34 34.2186 239.34 34.2186 239.278 34.2186V52.3524H242.01V40.8635C242.01 40.8014 242.01 40.7393 242.01 40.6772C241.948 40.4288 241.948 40.1804 241.948 39.8699C242.072 39.6836 242.072 39.6215 242.072 39.5594Z" fill="#32352C"/>
<path d="M38.9367 74.7716C19.1882 74.7716 3.16595 58.7493 3.16595 39.0009C3.16595 19.2525 19.1882 3.23022 38.9367 3.23022C58.6851 3.23022 74.6453 19.1904 74.6453 38.9388C74.6453 58.7493 58.6851 74.7716 38.9367 74.7716Z" fill="white"/>
<path d="M64.5226 19.0026C75.5767 33.1618 73.0306 53.5313 58.8713 64.5854C44.7121 75.6396 24.3427 73.0934 13.2885 58.9341C2.23439 44.7749 4.78056 24.4055 18.8777 13.3513C33.099 2.29719 53.4685 4.84336 64.5226 19.0026Z" fill="url(#paint0_linear_0_2327)"/>
<path d="M55.5193 20.4321V47.3223C55.5193 50.8621 52.7248 53.7809 49.2471 53.7809C45.7693 53.7809 42.9748 50.8621 42.9748 47.3223V24.0961L34.6531 26.5181V39.4353C34.6531 42.9751 31.8585 45.8939 28.3808 45.8939C24.9031 45.8939 22.1085 42.9751 22.1085 39.4353V30.1821L13.7869 32.542V39.3732C13.7869 47.6328 20.3076 54.2777 28.3187 54.2777C30.927 54.2777 33.349 53.5946 35.4604 52.3525C37.5098 58.128 42.8506 62.2267 49.185 62.2267C57.1961 62.2267 63.7168 55.5197 63.7168 47.3223V18.0723L55.5193 20.4321Z" fill="white"/>
<path d="M38.9379 0C17.4506 0 0 17.4506 0 39C0 60.5494 17.4506 78 38.9379 78C60.4252 78 77.8758 60.5494 77.8758 39C77.8758 17.4506 60.4252 0 38.9379 0ZM38.9379 74.7707C19.1895 74.7707 3.1672 58.7484 3.1672 39C3.1672 19.2516 19.1895 3.2293 38.9379 3.2293C58.6863 3.2293 74.6465 19.1895 74.6465 38.9379C74.6465 58.7484 58.6863 74.7707 38.9379 74.7707Z" fill="#32352C"/>
<defs>
<linearGradient id="paint0_linear_0_2327" x1="6.46508" y1="38.9648" x2="71.3878" y2="38.9648" gradientUnits="userSpaceOnUse">
<stop stop-color="#FFBA3B"/>
<stop offset="0.5315" stop-color="#FFA53B"/>
<stop offset="1" stop-color="#FF983B"/>
</linearGradient>
</defs>
</svg>
